<mxfile host="app.diagrams.net" modified="2022-12-09T08:17:41.719Z" agent="5.0 (Windows NT 10.0; Win64; x64) AppleWebKit/537.36 (KHTML, like Gecko) Chrome/107.0.0.0 Safari/537.36" etag="Ney9WDpuqisTAy6TkqBq" version="20.6.0" type="github">
  <diagram id="C5RBs43oDa-KdzZeNtuy" name="Page-1">
    <mxGraphModel dx="1422" dy="764" grid="1" gridSize="10" guides="1" tooltips="1" connect="1" arrows="1" fold="1" page="1" pageScale="1" pageWidth="827" pageHeight="1169" math="0" shadow="0">
      <root>
        <mxCell id="WIyWlLk6GJQsqaUBKTNV-0" />
        <mxCell id="WIyWlLk6GJQsqaUBKTNV-1" parent="WIyWlLk6GJQsqaUBKTNV-0" />
        <mxCell id="a_a7lAhYffYCH22C5NGe-2" value="" style="edgeStyle=orthogonalEdgeStyle;rounded=0;orthogonalLoop=1;jettySize=auto;html=1;" edge="1" parent="WIyWlLk6GJQsqaUBKTNV-1" source="a_a7lAhYffYCH22C5NGe-0" target="a_a7lAhYffYCH22C5NGe-1">
          <mxGeometry relative="1" as="geometry" />
        </mxCell>
        <mxCell id="a_a7lAhYffYCH22C5NGe-0" value="TPM" style="rounded=0;whiteSpace=wrap;html=1;" vertex="1" parent="WIyWlLk6GJQsqaUBKTNV-1">
          <mxGeometry x="320" y="50" width="120" height="60" as="geometry" />
        </mxCell>
        <mxCell id="a_a7lAhYffYCH22C5NGe-4" value="" style="edgeStyle=orthogonalEdgeStyle;rounded=0;orthogonalLoop=1;jettySize=auto;html=1;" edge="1" parent="WIyWlLk6GJQsqaUBKTNV-1" source="a_a7lAhYffYCH22C5NGe-1" target="a_a7lAhYffYCH22C5NGe-3">
          <mxGeometry relative="1" as="geometry" />
        </mxCell>
        <mxCell id="a_a7lAhYffYCH22C5NGe-1" value="创建CT" style="rounded=0;whiteSpace=wrap;html=1;" vertex="1" parent="WIyWlLk6GJQsqaUBKTNV-1">
          <mxGeometry x="320" y="190" width="120" height="60" as="geometry" />
        </mxCell>
        <mxCell id="a_a7lAhYffYCH22C5NGe-6" value="" style="edgeStyle=orthogonalEdgeStyle;rounded=0;orthogonalLoop=1;jettySize=auto;html=1;" edge="1" parent="WIyWlLk6GJQsqaUBKTNV-1" source="a_a7lAhYffYCH22C5NGe-3" target="a_a7lAhYffYCH22C5NGe-5">
          <mxGeometry relative="1" as="geometry" />
        </mxCell>
        <mxCell id="a_a7lAhYffYCH22C5NGe-3" value="是否有让利优惠" style="rhombus;whiteSpace=wrap;html=1;rounded=0;" vertex="1" parent="WIyWlLk6GJQsqaUBKTNV-1">
          <mxGeometry x="340" y="320" width="80" height="80" as="geometry" />
        </mxCell>
        <mxCell id="a_a7lAhYffYCH22C5NGe-8" value="" style="edgeStyle=orthogonalEdgeStyle;rounded=0;orthogonalLoop=1;jettySize=auto;html=1;" edge="1" parent="WIyWlLk6GJQsqaUBKTNV-1" source="a_a7lAhYffYCH22C5NGe-5" target="a_a7lAhYffYCH22C5NGe-7">
          <mxGeometry relative="1" as="geometry" />
        </mxCell>
        <mxCell id="a_a7lAhYffYCH22C5NGe-5" value="call PPM 获取让利优惠的PaymentMethodSeriesId" style="rounded=0;whiteSpace=wrap;html=1;" vertex="1" parent="WIyWlLk6GJQsqaUBKTNV-1">
          <mxGeometry x="320" y="490" width="120" height="60" as="geometry" />
        </mxCell>
        <mxCell id="a_a7lAhYffYCH22C5NGe-17" value="" style="edgeStyle=orthogonalEdgeStyle;rounded=0;orthogonalLoop=1;jettySize=auto;html=1;" edge="1" parent="WIyWlLk6GJQsqaUBKTNV-1" source="a_a7lAhYffYCH22C5NGe-7" target="a_a7lAhYffYCH22C5NGe-16">
          <mxGeometry relative="1" as="geometry" />
        </mxCell>
        <mxCell id="a_a7lAhYffYCH22C5NGe-7" value="call Payment 创建交收交易" style="rounded=0;whiteSpace=wrap;html=1;" vertex="1" parent="WIyWlLk6GJQsqaUBKTNV-1">
          <mxGeometry x="320" y="630" width="120" height="60" as="geometry" />
        </mxCell>
        <mxCell id="a_a7lAhYffYCH22C5NGe-13" value="" style="endArrow=classic;html=1;rounded=0;exitX=1;exitY=0.5;exitDx=0;exitDy=0;entryX=1;entryY=0.5;entryDx=0;entryDy=0;" edge="1" parent="WIyWlLk6GJQsqaUBKTNV-1" source="a_a7lAhYffYCH22C5NGe-3" target="a_a7lAhYffYCH22C5NGe-7">
          <mxGeometry width="50" height="50" relative="1" as="geometry">
            <mxPoint x="390" y="410" as="sourcePoint" />
            <mxPoint x="480" y="370" as="targetPoint" />
            <Array as="points">
              <mxPoint x="530" y="360" />
              <mxPoint x="520" y="660" />
            </Array>
          </mxGeometry>
        </mxCell>
        <mxCell id="a_a7lAhYffYCH22C5NGe-14" value="是" style="text;html=1;align=center;verticalAlign=middle;resizable=0;points=[];autosize=1;strokeColor=none;fillColor=none;" vertex="1" parent="WIyWlLk6GJQsqaUBKTNV-1">
          <mxGeometry x="370" y="415" width="40" height="30" as="geometry" />
        </mxCell>
        <mxCell id="a_a7lAhYffYCH22C5NGe-15" value="否" style="text;html=1;align=center;verticalAlign=middle;resizable=0;points=[];autosize=1;strokeColor=none;fillColor=none;" vertex="1" parent="WIyWlLk6GJQsqaUBKTNV-1">
          <mxGeometry x="520" y="485" width="40" height="30" as="geometry" />
        </mxCell>
        <mxCell id="a_a7lAhYffYCH22C5NGe-19" value="" style="edgeStyle=orthogonalEdgeStyle;rounded=0;orthogonalLoop=1;jettySize=auto;html=1;" edge="1" parent="WIyWlLk6GJQsqaUBKTNV-1" source="a_a7lAhYffYCH22C5NGe-16" target="a_a7lAhYffYCH22C5NGe-18">
          <mxGeometry relative="1" as="geometry" />
        </mxCell>
        <mxCell id="a_a7lAhYffYCH22C5NGe-16" value="是否有优惠折扣" style="rhombus;whiteSpace=wrap;html=1;rounded=0;" vertex="1" parent="WIyWlLk6GJQsqaUBKTNV-1">
          <mxGeometry x="340" y="760" width="80" height="80" as="geometry" />
        </mxCell>
        <mxCell id="a_a7lAhYffYCH22C5NGe-23" value="" style="edgeStyle=orthogonalEdgeStyle;rounded=0;orthogonalLoop=1;jettySize=auto;html=1;" edge="1" parent="WIyWlLk6GJQsqaUBKTNV-1" source="a_a7lAhYffYCH22C5NGe-18" target="a_a7lAhYffYCH22C5NGe-22">
          <mxGeometry relative="1" as="geometry" />
        </mxCell>
        <mxCell id="a_a7lAhYffYCH22C5NGe-18" value="call PPM 匹配折扣" style="whiteSpace=wrap;html=1;rounded=0;" vertex="1" parent="WIyWlLk6GJQsqaUBKTNV-1">
          <mxGeometry x="320" y="930" width="120" height="60" as="geometry" />
        </mxCell>
        <mxCell id="a_a7lAhYffYCH22C5NGe-22" value="完成" style="whiteSpace=wrap;html=1;rounded=0;" vertex="1" parent="WIyWlLk6GJQsqaUBKTNV-1">
          <mxGeometry x="320" y="1070" width="120" height="60" as="geometry" />
        </mxCell>
        <mxCell id="a_a7lAhYffYCH22C5NGe-24" value="" style="endArrow=classic;html=1;rounded=0;exitX=1;exitY=0.5;exitDx=0;exitDy=0;entryX=1;entryY=0.5;entryDx=0;entryDy=0;" edge="1" parent="WIyWlLk6GJQsqaUBKTNV-1" source="a_a7lAhYffYCH22C5NGe-16" target="a_a7lAhYffYCH22C5NGe-22">
          <mxGeometry width="50" height="50" relative="1" as="geometry">
            <mxPoint x="390" y="900" as="sourcePoint" />
            <mxPoint x="440" y="850" as="targetPoint" />
            <Array as="points">
              <mxPoint x="520" y="800" />
              <mxPoint x="520" y="1100" />
            </Array>
          </mxGeometry>
        </mxCell>
        <mxCell id="a_a7lAhYffYCH22C5NGe-25" value="是" style="text;html=1;align=center;verticalAlign=middle;resizable=0;points=[];autosize=1;strokeColor=none;fillColor=none;" vertex="1" parent="WIyWlLk6GJQsqaUBKTNV-1">
          <mxGeometry x="370" y="875" width="40" height="30" as="geometry" />
        </mxCell>
        <mxCell id="a_a7lAhYffYCH22C5NGe-26" value="否" style="text;html=1;align=center;verticalAlign=middle;resizable=0;points=[];autosize=1;strokeColor=none;fillColor=none;" vertex="1" parent="WIyWlLk6GJQsqaUBKTNV-1">
          <mxGeometry x="510" y="935" width="40" height="30" as="geometry" />
        </mxCell>
      </root>
    </mxGraphModel>
  </diagram>
</mxfile>
